# xmcd
#
# Track frame offsets:
#	150
#	11859
#	29396
#	49948
#	50733
#	72048
#	74228
#	95836
#	97629
#	116794
#	147303
#	172953
#	188279
#	215056
#	215799
#	233639
#	237873
#	263839
#	289633
#	308760
#
# Disc length: 4380 seconds
#
# Revision: 0
# Processed by: cddbd v1.4PL0 Copyright (c) Steve Scherf et al.
#
# Submitted via: MusicManager v6.1.1.0
#
DISCID=2d111a14
DTITLE=AK9 - The Struggle
DYEAR=1900
DGENRE=blues
TTITLE0=Intro
TTITLE1=Make Money
TTITLE2=Last Soldiers
TTITLE3=Skit One
TTITLE4=Money Power Respect (MPR) (Featuring CT) 
TTITLE5=Skit Two
TTITLE6=Mr. Officer (Featuring P-Nut) 
TTITLE7=Skit Three
TTITLE8=Walk The Streets (Featuring C-BO) 
TTITLE9=The Struggle (Featuring Big L)
TTITLE10=Mama's Song
TTITLE11=The Ghetto
TTITLE12=Illegal Business (Featuring CT and Decision)
TTITLE13=Skit Four
TTITLE14=Fuck Being Broke
TTITLE15=Skit Five
TTITLE16=Tear The Roof Off (Featuring Tysta, Decision, and Jeese)
TTITLE17=Bay Anthem (Featuring Rappin' 4-Tay, Johnny West, and D-LO-G)
TTITLE18=Rocky Pablo
TTITLE19=It Won"t Stop  (Featuring Loony, Big Z, and Overdose)
EXTD=
EXTT0=
EXTT1=
EXTT2=
EXTT3=
EXTT4=
EXTT5=
EXTT6=
EXTT7=
EXTT8=
EXTT9=
EXTT10=
EXTT11=
EXTT12=
EXTT13=
EXTT14=
EXTT15=
EXTT16=
EXTT17=
EXTT18=
EXTT19=
PLAYORDER=
